<svg width="48" height="48" viewBox="0 0 48 48" fill="none" xmlns="http://www.w3.org/2000/svg">
<rect width="48" height="48" rx="10" fill="black"/>
<path d="M28.887 36.3066C28.887 36.5857 28.7761 36.8534 28.5788 37.0507C28.3814 37.248 28.1138 37.3589 27.8347 37.3589H19.4166C19.1375 37.3589 18.8699 37.248 18.6725 37.0507C18.4752 36.8534 18.3643 36.5857 18.3643 36.3066C18.3643 36.0276 18.4752 35.7599 18.6725 35.5626C18.8699 35.3652 19.1375 35.2544 19.4166 35.2544H27.8347C28.1138 35.2544 28.3814 35.3652 28.5788 35.5626C28.7761 35.7599 28.887 36.0276 28.887 36.3066ZM35.9641 29.9852C35.9644 29.9852 35.9646 29.9849 35.9645 29.9846C35.2331 28.7267 34.1483 25.1691 34.1483 20.5227C34.1483 17.7319 33.0397 15.0554 31.0663 13.082C29.0929 11.1086 26.4164 10 23.6257 10C20.8349 10 18.1584 11.1086 16.185 13.082C14.2116 15.0554 13.103 17.7319 13.103 20.5227C13.103 25.171 12.0165 28.7277 11.2865 29.9852C11.1001 30.3048 11.0013 30.668 11 31.0381C10.9987 31.4082 11.0951 31.772 11.2793 32.093C11.4635 32.4139 11.7291 32.6806 12.0493 32.8662C12.3695 33.0517 12.7329 33.1496 13.103 33.1498H34.1483C34.5183 33.1493 34.8816 33.0513 35.2016 32.8657C35.5216 32.68 35.787 32.4133 35.971 32.0924C36.1551 31.7715 36.2513 31.4077 36.25 31.0378C36.2487 30.668 36.1499 30.3052 35.9638 29.9857C35.9637 29.9855 35.9638 29.9852 35.9641 29.9852V29.9852Z" fill="#F7CDA1"/>
</svg>
